<svg xmlns="http://www.w3.org/2000/svg" width="1920" height="1080" viewBox="0 0 1920 1080">
  <defs>
    <linearGradient id="ice" x1="0" y1="0" x2="1" y2="1">
      <stop offset="0" stop-color="#ffffff" stop-opacity="0.92"/>
      <stop offset="0.5" stop-color="#b8e9ff" stop-opacity="0.74"/>
      <stop offset="1" stop-color="#d9c7ff" stop-opacity="0.88"/>
    </linearGradient>
  </defs>
  <rect x="8" y="8" width="1904" height="1064" rx="18" fill="none" stroke="#eaf8ff" stroke-width="10" stroke-opacity="0.20"/>
  <rect x="13" y="13" width="1894" height="1054" rx="14" fill="none" stroke="url(#ice)" stroke-width="3"/>
  <rect x="29" y="29" width="1862" height="1022" rx="8" fill="none" stroke="#ffffff" stroke-width="1.5" stroke-opacity="0.34"/>
  <g fill="none" stroke="url(#ice)" stroke-width="6" stroke-linecap="round">
    <path d="M32 112V48q0-16 16-16h96"/><path d="M1776 32h96q16 0 16 16v64"/>
    <path d="M32 968v64q0 16 16 16h96"/><path d="M1776 1048h96q16 0 16-16v-64"/>
  </g>
  <g stroke="#dff5ff" stroke-width="3" stroke-linecap="round" opacity="0.76">
    <path d="M928 14h64M928 1066h64M14 508v64M1906 508v64"/>
  </g>
</svg>
