<svg xmlns="http://www.w3.org/2000/svg" width="1920" height="1080" viewBox="0 0 1920 1080">
  <defs>
    <linearGradient id="neon" x1="0" y1="0" x2="1" y2="1">
      <stop offset="0" stop-color="#32e6ff"/>
      <stop offset="0.48" stop-color="#7b8cff"/>
      <stop offset="1" stop-color="#ff4fd8"/>
    </linearGradient>
    <filter id="glow" x="-20%" y="-20%" width="140%" height="140%">
      <feGaussianBlur stdDeviation="6" result="blur"/>
      <feMerge><feMergeNode in="blur"/><feMergeNode in="SourceGraphic"/></feMerge>
    </filter>
  </defs>
  <rect x="9" y="9" width="1902" height="1062" rx="24" fill="none" stroke="url(#neon)" stroke-width="9" stroke-opacity="0.94" filter="url(#glow)"/>
  <rect x="27" y="27" width="1866" height="1026" rx="15" fill="none" stroke="#ffffff" stroke-width="2" stroke-opacity="0.30"/>
  <g fill="none" stroke="url(#neon)" stroke-width="7" stroke-linecap="round" filter="url(#glow)">
    <path d="M26 132V48Q26 26 48 26H152"/>
    <path d="M1768 26h104q22 0 22 22v84"/>
    <path d="M26 948v84q0 22 22 22h104"/>
    <path d="M1768 1054h104q22 0 22-22v-84"/>
  </g>
  <g fill="url(#neon)" opacity="0.85">
    <circle cx="960" cy="18" r="5"/><circle cx="960" cy="1062" r="5"/>
    <circle cx="18" cy="540" r="5"/><circle cx="1902" cy="540" r="5"/>
  </g>
</svg>
